<svg width="500" height="500" viewBox="0 0 500 500" fill="none" xmlns="http://www.w3.org/2000/svg">
<rect width="500" height="500" rx="50" fill="#F0F1F6"/>
<path d="M246.607 115.534C258.575 115.534 270.183 117.076 281.245 119.97L260.157 135.082C255.711 134.572 251.19 134.302 246.607 134.302C181.516 134.302 128.75 187.117 128.75 252.267C128.75 272.996 134.075 292.424 143.417 309.313L146.977 315.745L135.925 360.726L178.144 348.654L185.167 352.958C203.045 363.913 224.06 370.233 246.607 370.233C311.698 370.233 364.464 317.418 364.464 252.267C364.464 240.601 362.764 229.332 359.612 218.689L372.913 200.092C379.55 216.17 383.214 233.79 383.214 252.267C383.214 327.783 322.053 389 246.607 389C220.507 389 196.117 381.673 175.377 368.963L110 387.659L127.016 318.403C116.174 298.803 110 276.257 110 252.267C110 176.752 171.161 115.534 246.607 115.534Z" fill="white"/>
<path fill-rule="evenodd" clip-rule="evenodd" d="M373.314 114.72L410 141.004L373.314 167.288L347.054 204.009L320.794 167.288L284.107 141.004L320.794 114.72L347.054 78L373.314 114.72ZM348.393 128.94C340.996 128.94 335 134.941 335 142.345C335 149.748 340.996 155.75 348.393 155.75C355.79 155.75 361.786 149.748 361.786 142.345C361.786 134.941 355.79 128.94 348.393 128.94Z" fill="white"/>
<path d="M316.25 217.414C316.25 227.779 307.855 236.181 297.5 236.181C287.145 236.181 278.75 227.779 278.75 217.414C278.75 207.049 287.145 198.647 297.5 198.647C307.855 198.647 316.25 207.049 316.25 217.414Z" fill="white"/>
<path d="M219.821 230.819C201.257 226.134 191.137 225.241 174.286 230.819V225.005C174.286 213.409 184.479 204.009 197.054 204.009C209.628 204.009 219.821 213.409 219.821 225.005V230.819Z" fill="white"/>
<path d="M308.214 267.013C308.214 283.012 301.865 298.355 290.562 309.668C279.26 320.981 263.93 327.336 247.946 327.336C231.962 327.336 216.633 320.981 205.331 309.668C194.028 298.355 187.679 283.012 187.679 267.013H308.214Z" fill="white"/>
</svg>
